<svg xmlns="http://www.w3.org/2000/svg" viewBox="0 0 792 792"><defs><style>.cls-1{fill:#1f0061;}.cls-2{fill:#fff;}.cls-3{fill:#604d35;}.cls-4{fill:#907350;}.cls-5{fill:#b2b0a1;}.cls-6{fill:#e0dfd9;}.cls-7{fill:#c2c0b4;}.cls-8{fill:#868478;}</style></defs><title>Artboard 1</title><g id="square"><rect class="cls-1" x="68" y="48" width="653" height="674" rx="12" ry="12"/></g><g id="floor"><path class="cls-2" d="M410.75,700.5S299.2,644.66,219.5,631c0,0,91-88,191.25-107,0,0,119.25,35.5,184.25,104.5C595,628.5,485.5,660.5,410.75,700.5Z"/><path d="M318.83,660.44s57.67-50.94,91.92-61.94c0,0,60.75,25.49,95.5,60,0,0-85.75,34.51-95.5,42C410.75,700.5,323.26,662.12,318.83,660.44Z"/><path d="M410.75,524s-54,10.13-97.33,38c0,0,32.69,1.32,97.33,36.51,0,0,43.83-31,90-37.25C500.79,561.25,448,532,410.75,524Z"/><path class="cls-3" d="M219.5,631,271,713.5s88.58,23,141.54,50l-1.79-63S272,635,219.5,631Z"/><path class="cls-4" d="M595,628.5s-95,25-184.25,72l1.79,63S546,701.5,564,700.5Z"/></g><g id="chair"><path class="cls-2" d="M559,412,429,367s-6-145-9-206-133-12-133-12-134,52-80,132,72,341,72,341l20,9,15-16-2-115,84,25V647l15.5,9L433,639l9-114,75-38L502,595l18,10,18-14s32-133,38-152S559,412,559,412Zm-260,5.92L256,270s-8-29,12-47,37,39,37,39,25,139.33,25,138.33S299,417.92,299,417.92Zm50-24.72L320,238.33S315,207,324,201s17,34,17,34l27.49,149.67Zm32-15.53L365.67,266.33s-6-72.67,12.67-78,21.33,39.33,21.33,39.33l11.08,138.67Z"/><path class="cls-5" d="M411.5,656l7-163.5L280,453.5l-12.91-40.9L247.67,351a169.66,169.66,0,0,0-16.11-36.13c-7.23-12-16.8-22.28-24.56-33.92,0,0,25.5,51,34.5,100s20,110.5,20,110.5L279,622l20,9,15-16-2-115,84,25V647Z"/><path class="cls-6" d="M538,591l-18,14-18-10,15-108-75,38-9,114-21.5,17,7-163.5,155-69s8.5,4,3.5,19.5S538,591,538,591Z"/><polygon class="cls-7" points="517 487 540 476 520 605 502 595 517 487"/><polygon class="cls-8" points="299 631 287 493.5 312 500 314 615 299 631"/></g></svg>